HIERARCHY
ROOT Hips
{
	OFFSET	0.00	0.00	0.00
	CHANNELS 6 Xposition Yposition Zposition Zrotation Xrotation Yrotation
	JOINT Spine
	{
		OFFSET	 0.00	0.01	 0.00
		CHANNELS 3 Zrotation Xrotation Yrotation
		JOINT Spine1
		{
			OFFSET	 0.00	 2.45913012437421	 0.00
			CHANNELS 3 Zrotation Xrotation Yrotation
            JOINT Neck
            {
                OFFSET	 0.00	 2.48462964506057	 0.00
                CHANNELS 3 Zrotation Xrotation Yrotation
                JOINT Head
                {
                    OFFSET	 0.00	 0.927524780924562	 0.00
                    CHANNELS 3 Zrotation Xrotation Yrotation
                    End Site 
                    {
                        OFFSET	 0.00	 1.14999962169752	 0.00
                    }
                }
            }
			JOINT LeftShoulder
			{
				OFFSET	 0.00	 2.48462964506057	 0.00
				CHANNELS 3 Zrotation Xrotation Yrotation
				JOINT LeftUpArm
				{
					OFFSET	 0.00	 1.24881979654096	 0.00
					CHANNELS 3 Zrotation Xrotation Yrotation
					JOINT LeftForeArm
					{
						OFFSET	 0.00	2.59758046908119	 0.00
						CHANNELS 3 Zrotation Xrotation Yrotation
						JOINT LeftHand
						{
							OFFSET	 0.00	2.45542024364365	 0.00
							CHANNELS 3 Zrotation Xrotation Yrotation
							JOINT LeftHandThumb 
							{
								OFFSET	 0.00	0.00	 0.00
								CHANNELS 3 Zrotation Xrotation Yrotation
								End Site
								{
									OFFSET	 0.00	0.00	1.00000003353624
								}
							}
							JOINT L_Wrist_End 
							{
								OFFSET	 0.00	0.99999967115358	 0.00
								CHANNELS 3 Zrotation Xrotation Yrotation
								End Site 
								{
									OFFSET	 0.00	 0.00	 0.00
								}
							}
						}
					}
				}
			}
			JOINT RightShoulder
			{
				OFFSET	 0.00	 2.48462964506057	 0.00
				CHANNELS 3 Zrotation Xrotation Yrotation
				JOINT RightUpArm
				{
					OFFSET	 0.00	 1.24881979654096	 0.00
					CHANNELS 3 Zrotation Xrotation Yrotation
					JOINT RightForeArm
					{
						OFFSET	 0.00	2.59758046908119	 0.00
						CHANNELS 3 Zrotation Xrotation Yrotation
						JOINT RightHand
						{
							OFFSET	 0.00	2.45542024364365	 0.00
							CHANNELS 3 Zrotation Xrotation Yrotation
							JOINT RightHandThumb 
							{
								OFFSET	 0.00	0.00	 0.00
								CHANNELS 3 Zrotation Xrotation Yrotation
								End Site
								{
									OFFSET	 0.00	0.00	1.00000003353624
								}
							}
							JOINT R_Wrist_End 
							{
								OFFSET	 0.00	0.99999967115358	 0.00
								CHANNELS 3 Zrotation Xrotation Yrotation
								End Site 
								{
									OFFSET	 0.00	 0.00	 0.00
								}
							}
						}
					}
				}
			}
		}
	}
	JOINT LeftUpLeg
	{
		OFFSET	 1.2719394002717	 0.00	 0.00
		CHANNELS 3 Zrotation Xrotation Yrotation
		JOINT LeftLowLeg
		{
			OFFSET	 0.00	-4.3429100912261	 0.00
			CHANNELS 3 Zrotation Xrotation Yrotation
			JOINT LeftFoot
			{
				OFFSET	 0.00	-4.48767017425826	 0.00
				CHANNELS 3 Zrotation Xrotation Yrotation
				JOINT LeftToeBase
                {
                    OFFSET	 0.00	0.00	 1.51507020887566
                    CHANNELS 3 Zrotation Xrotation Yrotation
                    End Site 
                    {
                        OFFSET	 0.00	0.00	 0.75000010571191
                    }
                }
			}
		}
	}
	JOINT RightUpLeg
	{
		OFFSET	 -1.2719393604653	 0.00	 0.00
		CHANNELS 3 Zrotation Xrotation Yrotation
		JOINT RightLowLeg
		{
			OFFSET	 0.00	-4.3429100912261	 0.00
			CHANNELS 3 Zrotation Xrotation Yrotation
			JOINT RightFoot
			{
				OFFSET	 0.00	-4.48767017425826	 0.00
				CHANNELS 3 Zrotation Xrotation Yrotation
				JOINT RightToeBase
                {
                    OFFSET	 0.00	0.00	 1.51507020887566
                    CHANNELS 3 Zrotation Xrotation Yrotation
                    End Site 
                    {
                        OFFSET	 0.00	0.00	 0.749999965609858
                    }
                }   
			}
		}
	}
}
MOTION 
Frames:	8 
Frame Time: 0.02 
  -2.5273399353027344 -1.976510009765625 9.404929809570312 -128.873 80.0012 159.431 7.62458 -21.9698 5.5147 -6.45759 8.4985 3.81153 27.9009 39.7111 -19.1501 -28.1084 -65.231 1067.03 -110.5224 1.97485 11.1616 -45.4935 -14.7122 -279.519 0.0 87.0291 0.0 24.7369 48.4359 61.0219 0.0 0.0 0.0 0.0 0.0 0.0 111.9449 3.33491 -7.76576 31.1054 62.8215 -346.302 0.0 22.5039 0.0 -2.72042 -15.1388 18.8929 0.0 0.0 0.0 0.0 0.0 0.0 -0.36663 -3.56367 -23.7009 0.0 7.36265 0.0 1.14807 -4.101101 21.6676 0.0 -11.42072 0.0 9.00875 -1.97158 384.017 0.0 4.0411 0.0 3.4466 2.2968998 -26.314 0.0 -17.16631 0.0 
  -2.52677001953125 -1.9839999389648437 9.403790283203126 -128.886 79.9759 159.39 7.55916 -22.1043 5.45892 -6.45201 8.64802 3.85399 27.9 39.3803 -19.2006 -27.6849 -65.2679 1067.31 -110.5448 1.86168 11.0227 -45.4971 -15.0351 -279.448 0.0 87.1444 0.0 26.9819 47.0154 58.6073 0.0 0.0 0.0 0.0 0.0 0.0 112.163 3.40859 -8.03321 31.4237 62.0517 -347.281 0.0 22.3365 0.0 -2.01834 -15.1999 18.7935 0.0 0.0 0.0 0.0 0.0 0.0 -0.342799 -3.54095 -23.7117 0.0 7.37637 0.0 1.16977 -4.163 21.7429 0.0 -11.40863 0.0 9.03854 -1.94747 384.087 0.0 4.03191 0.0 3.40422 2.2971 -26.3476 0.0 -17.18815 0.0 
  -2.5258099365234377 -1.991820068359375 9.402109985351563 -129.034 79.8953 159.487 7.40394 -22.2987 5.4318 -6.26687 8.76439 4.02655 27.5171 38.9701 -19.0067 -27.8843 -65.5342 1066.79 -110.6882 1.90714 11.0788 -45.4866 -15.3395 -279.56 0.0 87.2303 0.0 29.4187 46.1763 55.8254 0.0 0.0 0.0 0.0 0.0 0.0 112.3127 3.45989 -8.31853 31.7792 60.8363 -348.383 0.0 22.2094 0.0 -1.03755 -15.0584 19.1639 0.0 0.0 0.0 0.0 0.0 0.0 -0.32639 -3.57355 -23.736 0.0 7.38864 0.0 1.19519 -4.2318 21.8363 0.0 -11.42627 0.0 9.05821 -1.97907 384.093 0.0 4.02029 0.0 3.38248 2.2650995 -26.2898 0.0 -17.19656 0.0 
  -2.5248500061035157 -1.9990299987792968 9.400570068359375 -129.041 79.851 159.479 7.47484 -22.5191 5.39039 -6.47406 9.12977 3.99972 26.9938 38.3866 -18.555 -27.4929 -65.8232 1066.91 -110.6297 1.58004 10.7929 -45.4847 -15.6317 -279.622 0.0 87.2995 0.0 31.3882 45.2337 53.5913 0.0 0.0 0.0 0.0 0.0 0.0 112.7624 3.83393 -8.72617 31.849 59.3509 -349.682 0.0 22.3524 0.0 -0.049677 -14.9639 19.9253 0.0 0.0 0.0 0.0 0.0 0.0 -0.304356 -3.57948 -23.777 0.0 7.41482 0.0 1.21844 -4.3080006 21.9106 0.0 -11.40354 0.0 9.07916 -1.97262 384.054 0.0 4.00782 0.0 3.38479 2.2285995 -26.2014 0.0 -17.18422 0.0 
  -2.5231199645996094 -2.006219940185547 9.398510131835938 -129.027 79.8123 159.47 7.44149 -22.6756 5.39057 -6.44548 9.38807 4.1069 26.2365 37.6959 -18.0621 -27.5908 -66.1833 1066.35 -110.6685 1.48287 10.6242 -45.5463 -15.9561 -279.579 0.0 87.1553 0.0 33.2176 44.6839 51.4753 0.0 0.0 0.0 0.0 0.0 0.0 113.0822 3.94686 -9.06245 32.4614 57.8619 -350.268 0.0 22.0493 0.0 0.802884 -14.5115 19.9438 0.0 0.0 0.0 0.0 0.0 0.0 -0.28302 -3.57526 -23.8467 0.0 7.43494 0.0 1.22783 -4.398199 21.978 0.0 -11.39646 0.0 9.09933 -1.95257 384.04 0.0 3.99145 0.0 3.393 2.1707 -26.1625 0.0 -17.185009 0.0 
  -2.5208900451660154 -2.0123399353027343 9.396599731445313 -128.904 79.8499 159.372 7.38665 -22.7341 5.35151 -6.35403 9.71292 4.19103 25.4171 36.8953 -17.5217 -27.4731 -66.4585 1066.06 -110.7241 1.41778 10.6136 -45.8005 -16.2969 -279.856 0.0 86.8719 0.0 33.3224 44.4193 51.3609 0.0 0.0 0.0 0.0 0.0 0.0 113.5036 4.03934 -9.45121 32.7271 56.1105 -351.161 0.0 22.1276 0.0 1.23973 -14.4022 20.7244 0.0 0.0 0.0 0.0 0.0 0.0 -0.274617 -3.49765 -23.9205 0.0 7.44816 0.0 1.22071 -4.476101 22.0207 0.0 -11.38126 0.0 9.10722 -1.87187 384.02 0.0 3.99719 0.0 3.40863 2.0994997 -26.1352 0.0 -17.19314 0.0 
  -2.5176100158691406 -2.018280029296875 9.394600219726563 -128.648 79.9657 159.24 7.26543 -22.7062 5.23639 -6.18468 9.9825 4.22962 24.2384 36.0734 -16.7175 -27.8271 -66.8162 1065.3 -110.6022 1.4706 10.7745 -46.3739 -16.6904 -279.543 0.0 85.9365 0.0 44.5565 46.1932 59.5868 0.0 0.0 0.0 0.0 0.0 0.0 113.838104 4.08632 -9.80846 33.1722 54.2157 -352.169 0.0 22.1318 0.0 1.28542 -14.3339 21.8961 0.0 0.0 0.0 0.0 0.0 0.0 -0.284131 -3.35585 -24.0206 0.0 7.4692 0.0 1.25707 -4.5265007 22.0212 0.0 -11.37649 0.0 9.09963 -1.70305 383.902 0.0 3.99394 0.0 3.42453 2.0 -26.1244 0.0 -17.19188 0.0 
  -2.514709930419922 -2.024830017089844 9.39281982421875 -128.31 80.1365 159.117 7.09172 -22.6343 5.01876 -6.04437 10.3404 4.19794 23.1319 35.085 -15.9468 -27.8089 -67.1135 1065.07 -110.5611 1.3976 10.7215 -46.9172 -17.384 -280.374 0.0 86.0257 0.0 39.4272 43.2444 56.127 0.0 0.0 0.0 0.0 0.0 0.0 114.1353 4.09217 -10.184 33.5911 52.2401 -353.55 0.0 22.3498 0.0 1.41113 -14.2832 23.9164 0.0 0.0 0.0 0.0 0.0 0.0 -0.300102 -3.17515 -24.1537 0.0 7.50094 0.0 1.2597 -4.5690994 21.9524 0.0 -11.385469 0.0 9.08642 -1.47241 383.653 0.0 3.98081 0.0 3.40184 1.9067001 -26.1046 0.0 -17.16167 0.0 
